<?xml version='1.0' encoding='utf-8'?>
<svg xmlns="http://www.w3.org/2000/svg" id="Ebene_1" data-name="Ebene 1" viewBox="0 0 800 800"><defs><clipPath id="clip-path"><circle cx="400" cy="400" r="400" style="fill:none"/></clipPath><linearGradient id="Unbenannter_Verlauf_14" x1="434.4266" y1="306.9339" x2="121.0071" y2="620.3534" gradientUnits="userSpaceOnUse"><stop offset="0"/><stop offset="0.8031" stop-color="#1d1d1b" stop-opacity="0.1969"/><stop offset="1" stop-opacity="0"/></linearGradient></defs><title>PC-TEST</title><circle cx="400" cy="400" r="400" style="fill:#1c8adb"/><g style="clip-path:url(#clip-path)"><path d="M236.17,768.17,574.6188,429.7211V291.7028H386.0029V253H225.3812L4.5656,473.8156C30.0057,620.3438,108.4491,717.3,236.17,768.17Z" style="opacity:0.42;fill:url(#Unbenannter_Verlauf_14)"/><path d="M574.6188,429.7211V291.7028H386.0029V253H225.3812V547H386.0029V429.7211H436.6v31.148H412.9881v17.758h64.2772v-17.758H453.6529v-31.148ZM239.5,282.579H371.8837v9.1237H315.6346v10.3931H239.5Zm0,31.6688h76.1342v19.5169H239.5Zm72.3912,104.6783a6.2,6.2,0,1,1-6.2-6.2A6.2,6.2,0,0,1,311.8915,418.9261Zm-6.2,94.833A38.1192,38.1192,0,1,1,343.8113,475.64,38.1192,38.1192,0,0,1,305.692,513.7592Zm18.7526-91.8536V299.5182H565.8088V421.9056Z" style="fill:#fff"/><circle cx="305.692" cy="475.6399" r="30.9385" style="fill:#fff"/></g></svg>