<?xml version='1.0' encoding='utf-8'?>
<svg xmlns="http://www.w3.org/2000/svg" width="280.569mm" height="184.166mm" version="1.1" style="shape-rendering:geometricPrecision; text-rendering:geometricPrecision; image-rendering:optimizeQuality; fill-rule:evenodd; clip-rule:evenodd" viewBox="0 0 28057 18417"> <defs> <style type="text/css">  .fil6 {fill:none} .fil5 {fill:#333333} .fil17 {fill:#4D4D4D} .fil14 {fill:gray} .fil2 {fill:#914313} .fil12 {fill:#999999} .fil8 {fill:#A3A0A1} .fil13 {fill:#B3B3B3} .fil7 {fill:#BAB8BB} .fil16 {fill:#BDBBBB} .fil18 {fill:#C2C2C2} .fil15 {fill:#C9C7C7} .fil11 {fill:#CCCCCC} .fil10 {fill:#D61B2E} .fil1 {fill:#E6E6E6} .fil4 {fill:#EBBC96} .fil3 {fill:#FACAA3} .fil9 {fill:white} .fil0 {fill:url(#id0)}  </style> <linearGradient id="id0" gradientUnits="userSpaceOnUse" x1="13959.7" y1="1554.77" x2="14097.2" y2="16861.9"> <stop offset="0" style="stop-opacity:1; stop-color:#CCCCCC"/> <stop offset="1" style="stop-opacity:1; stop-color:white"/> </linearGradient> </defs> <g id="Layer_x0020_1"> <metadata id="CorelCorpID_0Corel-Layer"/> <g id="_819803872"> <polygon class="fil0" points="0,18417 28057,18417 28057,0 0,0 "/> <path class="fil1" d="M13937 4081c15,-154 44,-436 91,-666 47,-229 113,-406 202,-584 90,-178 204,-358 332,-513 129,-156 271,-288 425,-392 153,-104 316,-180 499,-234 183,-55 385,-87 588,-84 202,3 405,42 552,62 147,19 238,19 379,84 142,64 334,192 477,318 144,125 240,247 303,364 63,118 93,231 164,347 70,116 180,235 260,387 80,152 130,337 144,499 13,161 -10,299 -29,303 -19,3 -34,-127 -53,-222 -18,-95 -40,-153 -41,-100 -1,53 19,219 0,412 -18,194 -75,416 -131,577 -51,150 -102,247 -155,324 5,3 9,15 13,38 11,53 28,166 45,316 17,150 33,337 41,455 8,118 8,167 -1,212 -9,45 -28,85 -55,115 -28,31 -65,51 -116,118 -50,67 -114,181 -167,255 -52,75 -92,111 -133,141 -40,29 -80,53 -152,76 -27,8 -58,16 -92,24 59,37 194,80 428,128 237,49 574,104 830,179 256,75 430,171 685,251 254,81 590,146 801,205 211,59 298,111 394,353 96,241 200,672 298,1014 98,342 189,595 257,790 67,196 111,336 133,438 21,102 21,168 58,255 37,87 111,196 192,355 81,159 168,367 263,613 96,246 201,530 294,736 94,207 177,338 270,466 94,129 198,255 266,414 67,159 98,350 189,490 92,139 244,226 342,368 98,141 142,337 174,494 33,157 55,274 96,389 41,116 102,229 124,357 22,129 4,273 -2,414 -7,142 -2,281 30,412 21,81 52,158 78,222l4530 0 0 2361 -28057 0 0 -2361 2485 0 -1179 -4321c-6,-146 130,-196 275,-196l6596 183c162,29 282,102 313,262l775 3137c-5,-22 -11,-45 -16,-70 -87,-368 -246,-986 -321,-1339 -75,-352 -67,-439 -40,-547 28,-108 73,-236 131,-467 58,-231 127,-564 213,-893 86,-328 189,-653 237,-869 48,-217 41,-326 78,-424 37,-98 118,-185 170,-247 52,-62 76,-99 99,-186 23,-87 45,-224 74,-312 29,-89 66,-128 86,-169 20,-41 22,-85 25,-206 3,-121 8,-319 36,-477 28,-157 80,-275 112,-362 32,-87 42,-144 63,-266 21,-122 51,-309 77,-488 27,-180 48,-352 80,-454 31,-103 73,-135 187,-183 114,-48 302,-111 537,-159 235,-48 518,-81 741,-129 223,-47 386,-111 514,-152 127,-41 219,-61 335,-79 117,-19 258,-36 390,-77 131,-40 253,-103 364,-179 111,-76 212,-166 288,-228 76,-62 128,-97 180,-135 53,-38 105,-79 143,-116 38,-37 62,-70 74,-99 12,-30 12,-56 -17,-51 -30,4 -89,39 -161,18 -73,-21 -160,-97 -203,-176 -42,-80 -40,-162 -41,-283 -1,-121 -6,-280 -11,-425 -6,-145 -12,-275 -8,-374 5,-99 20,-167 44,-209 24,-43 56,-60 90,-59 34,1 69,21 87,17 18,-4 20,-31 35,-186zm-4441 11975l993 0c-138,-42 -253,-85 -362,-125 -197,-72 -374,-135 -498,-180 -123,-44 -193,-71 -235,-142 -6,-10 -11,-21 -16,-33l118 480zm13427 0c-16,-23 -34,-46 -55,-67 -50,-50 -111,-90 -127,-150 -17,-60 12,-142 3,-229 -9,-86 -54,-178 -102,-250 -48,-72 -98,-126 -150,-200 -52,-75 -105,-171 -183,-238 -78,-66 -180,-105 -261,-160 -81,-56 -141,-129 -219,-172 -79,-44 -176,-58 -262,-53 -86,4 -161,27 -224,70 -64,43 -116,106 -201,174 -85,69 -203,143 -282,192 -79,49 -119,73 -214,118 -94,44 -243,110 -341,191 -98,82 -145,180 -152,271 -7,91 25,174 70,235 45,60 101,97 138,135 36,38 53,78 68,108 5,9 10,18 14,25l2480 0zm-5067 -10975c-30,39 -55,79 -71,125 -28,84 -24,191 -30,276 -5,85 -20,148 -52,199 -31,51 -79,90 -105,173 -6,17 -10,35 -14,54 60,-1 109,-2 147,-3 77,-2 114,-2 128,-25 14,-22 5,-68 7,-131 2,-62 14,-142 9,-230 -4,-88 -25,-185 -38,-251 -14,-65 -20,-100 -2,-145 6,-14 13,-28 21,-42zm-286 907c-11,63 -23,135 -49,209 -45,134 -132,275 -185,361 -27,45 -45,75 -47,98 63,-15 123,-36 176,-66 66,-38 121,-91 174,-172 53,-80 106,-188 131,-258 25,-71 22,-103 0,-126 -23,-23 -67,-36 -150,-43 -15,-1 -32,-2 -50,-3zm2401 7887c-35,-95 -66,-213 -106,-352 -40,-139 -90,-300 -152,-507 -62,-207 -136,-460 -179,-602 -42,-143 -53,-175 -57,-158 -5,17 -3,85 -5,155 -2,69 -9,141 -19,244 -11,104 -27,239 -65,364 -38,125 -99,241 -129,377 -31,136 -31,292 -37,476 -7,184 -20,396 -36,532 -16,136 -36,197 -24,323 12,126 55,318 70,478 14,160 -1,288 22,418 24,129 88,260 153,360 17,26 34,51 54,73 363,-4 603,-6 751,0 19,0 232,4 231,0 -5,-26 -65,-114 -82,-133 -37,-38 -93,-75 -138,-135 -126,-171 -75,-375 82,-506 143,-119 345,-181 507,-279 -103,-73 -158,-117 -202,-167 -56,-61 -95,-131 -148,-217 -54,-86 -121,-188 -187,-275 -65,-87 -128,-159 -179,-231 -51,-72 -90,-144 -125,-238z"/> <path class="fil2" d="M17482 2072c-143,-126 -335,-254 -477,-318 -141,-65 -232,-65 -379,-84 -147,-20 -350,-59 -552,-62 -203,-3 -405,29 -588,84 -183,54 -346,130 -499,234 -154,104 -296,236 -425,392 -128,155 -242,335 -332,513 -89,178 -155,355 -202,584 -47,230 -76,512 -91,666 -13,133 -16,172 -28,182 42,26 60,40 83,67 37,46 85,129 123,266 38,137 66,329 106,472 41,144 93,240 131,256 38,17 62,-47 95,-155 32,-109 74,-264 143,-417 70,-154 168,-306 295,-423 128,-116 284,-197 387,-214 102,-18 150,28 161,107 11,78 -15,189 -120,295 -104,105 -287,205 -307,251 -19,46 124,37 286,-15 163,-53 343,-148 412,-150 68,-3 25,89 -62,160 -87,70 -218,120 -207,137 11,16 163,-1 284,-51 121,-51 210,-133 352,-236 141,-102 335,-224 394,-206 58,17 -18,174 -116,316 -98,143 -217,271 -223,309 -5,39 104,-14 223,-115 120,-101 251,-251 313,-279 62,-27 55,69 32,174 -22,104 -62,217 -166,296 -105,78 -274,122 -245,139 29,17 258,9 455,-21 197,-29 362,-79 509,-151 147,-72 276,-166 373,-277 97,-111 162,-239 203,-259 42,-19 59,70 61,153 2,83 -11,159 -28,238 -17,80 -38,163 -59,246 32,-69 84,-125 135,-195 57,-80 112,-181 167,-342 56,-161 113,-383 131,-577 19,-193 -1,-359 0,-412 1,-53 23,5 41,100 19,95 34,225 53,222 19,-4 42,-142 29,-303 -14,-162 -64,-347 -144,-499 -80,-152 -190,-271 -260,-387 -71,-116 -101,-229 -164,-347 -63,-117 -159,-239 -303,-364z"/> <path class="fil3" d="M17620 4798c-97,111 -226,205 -373,277 -147,72 -312,122 -509,151 -197,30 -426,38 -455,21 -29,-17 140,-61 245,-139 104,-79 144,-192 166,-296 23,-105 30,-201 -32,-174 -62,28 -193,178 -313,279 -119,101 -228,154 -223,115 6,-38 125,-166 223,-309 98,-142 174,-299 116,-316 -59,-18 -253,104 -394,206 -142,103 -231,185 -352,236 -121,50 -273,67 -284,51 -11,-17 120,-67 207,-137 87,-71 130,-163 62,-160 -69,2 -249,97 -412,150 -162,52 -305,61 -286,15 20,-46 203,-146 307,-251 105,-106 131,-217 120,-295 -11,-79 -59,-125 -161,-107 -103,17 -259,98 -387,214 -127,117 -225,269 -295,423 -69,153 -111,308 -143,417 -33,108 -57,172 -95,155 -38,-16 -90,-112 -131,-256 -40,-143 -68,-335 -106,-472 -38,-137 -86,-220 -123,-266 -23,-27 -41,-41 -83,-67 -2,2 -4,3 -7,4 -18,4 -53,-16 -87,-17 -34,-1 -66,16 -90,59 -24,42 -39,110 -44,209 -4,99 2,229 8,374 5,145 10,304 11,425 1,121 -1,203 41,283 43,79 130,155 203,176 9,3 18,4 27,5 32,-3 58,-6 78,-7 24,-7 43,-14 56,-16 26,-4 29,16 21,41 0,2 1,5 1,7 6,38 10,107 9,172 -2,65 -8,126 -32,231 -24,106 -66,256 -74,380 -9,124 15,222 66,350 51,127 130,284 242,437 112,154 258,304 362,422 105,119 168,206 232,246 64,41 130,34 193,59 63,25 124,82 227,133 104,51 249,97 374,108 124,11 226,-13 334,-84 108,-71 221,-188 321,-286 100,-98 187,-177 275,-280 88,-103 178,-232 267,-394 89,-162 178,-358 243,-480 46,-87 80,-137 125,-174 6,-22 22,-49 45,-88 53,-86 140,-227 185,-361 46,-134 50,-260 77,-343 26,-83 74,-122 105,-173 32,-51 47,-114 52,-199 6,-85 2,-192 30,-276 3,-10 8,-20 12,-30 21,-83 42,-166 59,-246 17,-79 30,-155 28,-238 -2,-83 -19,-172 -61,-153 -41,20 -106,148 -203,259z"/> <path class="fil4" d="M14162 5912c14,122 -20,360 -24,556 -4,195 22,348 61,474 40,126 92,226 181,351 89,126 216,276 330,384 114,107 217,173 284,237 64,61 96,121 313,298 -77,-44 -129,-88 -182,-109 -63,-25 -129,-18 -193,-59 -64,-40 -127,-127 -232,-246 -104,-118 -250,-268 -362,-422 -112,-153 -191,-310 -242,-437 -51,-128 -75,-226 -66,-350 8,-124 50,-274 74,-380 24,-105 30,-166 32,-231 1,-60 -2,-122 -7,-161 15,19 27,48 33,95z"/> <path class="fil5" d="M14012 4315c13,-38 54,-92 143,35 90,126 228,433 364,680 135,247 268,435 351,535 84,101 117,115 205,125 89,10 231,15 417,43 185,28 414,78 577,122 162,44 259,82 328,104 69,23 109,29 163,21 54,-9 121,-33 267,-47 146,-13 370,-17 540,-20 171,-3 287,-6 364,-8 77,-2 114,-2 128,-25 14,-22 5,-68 7,-131 2,-62 14,-142 9,-230 -4,-88 -25,-185 -38,-251 -14,-65 -20,-100 -2,-145 18,-46 60,-103 83,-135 24,-33 28,-40 39,13 11,53 28,166 45,316 17,150 33,337 41,455 8,118 8,167 -1,212 -9,45 -28,85 -55,115 -28,31 -65,51 -116,118 -50,67 -114,181 -167,255 -52,75 -92,111 -133,141 -40,29 -80,53 -152,76 -72,22 -175,43 -270,53 -95,10 -181,10 -262,-10 -81,-20 -157,-60 -211,-107 -54,-47 -85,-100 -106,-164 -21,-63 -30,-137 -44,-194 -13,-56 -29,-94 -56,-108 -26,-15 -63,-6 -118,45 -55,51 -128,145 -212,220 -84,75 -178,131 -265,169 -87,39 -165,58 -277,57 -112,-2 -258,-25 -382,-64 -124,-39 -227,-95 -282,-148 -56,-52 -64,-103 -64,-181 0,-79 8,-187 5,-254 -4,-67 -20,-93 -84,-181 -63,-88 -173,-239 -276,-388 -104,-149 -200,-297 -258,-397 -59,-100 -78,-152 -99,-228 -22,-75 -46,-174 -68,-246 -22,-73 -42,-120 -59,-154 -18,-34 -33,-57 -19,-94zm1102 1551c34,-26 77,-43 168,-45 92,-3 232,10 386,38 154,28 322,70 421,109 99,38 129,71 113,129 -16,58 -79,139 -148,217 -69,78 -143,152 -214,198 -72,46 -142,63 -228,68 -87,6 -190,-1 -293,-24 -102,-24 -203,-64 -266,-106 -63,-42 -89,-85 -96,-143 -8,-58 2,-129 17,-190 14,-60 34,-109 57,-151 23,-41 49,-75 83,-100zm1737 175c101,-27 272,-43 418,-51 147,-7 269,-6 351,1 83,7 127,20 150,43 22,23 25,55 0,126 -25,70 -78,178 -131,258 -53,81 -108,134 -174,172 -67,38 -145,61 -226,77 -81,17 -165,27 -247,20 -81,-6 -161,-29 -217,-63 -56,-34 -88,-78 -104,-140 -16,-61 -15,-140 -9,-200 6,-60 17,-101 38,-140 20,-39 51,-76 151,-103z"/> <path class="fil6" d="M14096 6939c-51,-128 -75,-226 -66,-350 8,-124 50,-274 74,-380 24,-105 30,-166 32,-231 1,-53 -2,-109 -6,-148 -6,0 -12,-1 -18,-1 -13,24 -34,50 -64,79 -38,37 -90,78 -143,116 -52,38 -104,73 -180,135 -76,62 -177,152 -288,228 -111,76 -233,139 -364,179 -132,41 -273,58 -390,77 -116,18 -208,38 -335,79 -128,41 -291,105 -514,152 -223,48 -506,81 -741,129 -235,48 -423,111 -537,159 -114,48 -156,80 -187,183 -32,102 -53,274 -80,454 -26,179 -56,366 -77,488 -21,122 -31,179 -63,266 -32,87 -84,205 -112,362 -28,158 -33,356 -36,477 -3,121 -5,165 -25,206 -20,41 -57,80 -86,169 -29,88 -51,225 -74,312 -23,87 -47,124 -99,186 -52,62 -133,149 -170,247 -37,98 -30,207 -78,424 -48,216 -151,541 -237,869 -86,329 -155,662 -213,893 -58,231 -103,359 -131,467 -27,108 -35,195 40,547 75,353 234,971 321,1339 87,368 102,486 145,558 42,71 112,98 235,142 124,45 301,108 498,180 109,40 224,83 362,125l-67 0c258,85 381,126 596,158 283,43 728,69 1137,101 409,33 784,72 1141,100 357,29 696,46 905,44 209,-2 288,-24 359,-85 72,-61 138,-161 186,-213 48,-51 80,-55 168,-31 88,24 233,75 359,98 126,23 232,18 305,-4 72,-21 110,-58 132,-88 22,-31 27,-55 54,-65 26,-9 74,-5 206,-2 131,4 345,6 941,3 596,-2 1573,-9 2087,-13 224,-2 360,-3 463,-3 -20,-22 -37,-47 -54,-73 -65,-100 -129,-231 -153,-360 -23,-130 -8,-258 -22,-418 -15,-160 -58,-352 -70,-478 -12,-126 8,-187 24,-323 16,-136 29,-348 36,-532 6,-184 6,-340 37,-476 30,-136 91,-252 129,-377 38,-125 54,-260 65,-364 10,-103 17,-175 19,-244 2,-70 0,-138 5,-155 4,-17 15,15 57,158 43,142 117,395 179,602 62,207 112,368 152,507 40,139 71,257 106,352 35,94 74,166 125,238 51,72 114,144 179,231 66,87 133,189 187,275 53,86 92,156 148,217 44,50 99,94 202,167 -51,31 -92,53 -166,88 -94,44 -243,110 -341,191 -98,82 -145,180 -152,271 -7,91 25,174 70,235 45,60 101,97 138,135 36,38 53,78 68,108 22,40 48,76 67,118 26,59 60,150 106,209 46,59 103,88 157,84 53,-4 102,-40 126,-45 24,-6 23,19 24,50 1,31 4,68 24,119 19,50 55,113 96,157 41,45 87,71 133,77 47,6 95,-8 124,2 29,11 39,45 58,70 20,24 49,39 111,40 61,1 155,-11 243,-53 88,-41 171,-112 214,-137 43,-26 46,-6 55,20 10,26 25,59 47,78 21,19 50,24 117,13 67,-11 172,-38 266,-85 93,-46 175,-113 266,-197 91,-84 192,-186 260,-285 14,-20 26,-40 37,-59 22,10 26,19 31,28 13,25 32,48 93,57 62,10 166,7 216,-36 50,-43 46,-126 75,-134 29,-9 91,56 135,96 44,40 70,54 70,23 0,-32 -26,-108 -38,-176 -1,-3 -1,-6 -2,-9l-13 0c-26,-64 -57,-141 -78,-222 -32,-131 -37,-270 -30,-412 6,-141 24,-285 2,-414 -22,-128 -83,-241 -124,-357 -41,-115 -63,-232 -96,-389 -32,-157 -76,-353 -174,-494 -98,-142 -250,-229 -342,-368 -91,-140 -122,-331 -189,-490 -68,-159 -172,-285 -266,-414 -93,-128 -176,-259 -270,-466 -93,-206 -198,-490 -294,-736 -95,-246 -182,-454 -263,-613 -81,-159 -155,-268 -192,-355 -37,-87 -37,-153 -58,-255 -22,-102 -66,-242 -133,-438 -68,-195 -159,-448 -257,-790 -98,-342 -202,-773 -298,-1014 -96,-242 -183,-294 -394,-353 -211,-59 -547,-124 -801,-205 -255,-80 -429,-176 -685,-251 -256,-75 -593,-130 -830,-179 -234,-48 -369,-91 -428,-128 -35,8 -73,15 -111,20 -16,24 -32,53 -50,87 -65,122 -154,318 -243,480 -89,162 -179,291 -267,394 -88,103 -175,182 -275,280 -100,98 -213,215 -321,286 -108,71 -210,95 -334,84 -125,-11 -270,-57 -374,-108 -16,-8 -31,-16 -45,-24 -77,-44 -129,-88 -182,-109 -63,-25 -129,-18 -193,-59 -64,-40 -127,-127 -232,-246 -104,-118 -250,-268 -362,-422 -112,-153 -191,-310 -242,-437z"/> <path class="fil3" d="M21829 14590c-79,-44 -176,-58 -262,-53 -86,4 -161,27 -224,70 -64,43 -116,106 -201,174 -85,69 -203,143 -282,192 -79,49 -119,73 -214,118 -94,44 -243,110 -341,191 -98,82 -145,180 -152,271 -7,91 25,174 70,235 45,60 101,97 138,135 36,38 53,78 68,108 12,21 23,38 24,46 20,24 30,45 43,72 26,59 60,150 106,209 46,59 103,88 157,84 53,-4 102,-40 126,-45 24,-6 23,19 24,50 1,31 4,68 24,119 19,50 55,113 96,157 41,45 87,71 133,77 47,6 95,-8 124,2 29,11 39,45 58,70 20,24 49,39 111,40 61,1 155,-11 243,-53 88,-41 171,-112 214,-137 43,-26 46,-6 55,20 10,26 25,59 47,78 21,19 50,24 117,13 67,-11 172,-38 266,-85 93,-46 175,-113 266,-197 91,-84 192,-186 260,-285 14,-21 27,-41 38,-62 2,-14 3,-30 2,-46 -6,-56 -45,-118 -95,-169 -50,-50 -111,-90 -127,-150 -17,-60 12,-142 3,-229 -9,-86 -54,-178 -102,-250 -48,-72 -98,-126 -150,-200 -52,-75 -105,-171 -183,-238 -78,-66 -180,-105 -261,-160 -81,-56 -141,-129 -219,-172z"/> <path class="fil7" d="M20763 8843c-98,-342 -202,-773 -298,-1014 -96,-242 -183,-294 -394,-353 -211,-59 -547,-124 -801,-205 -255,-80 -429,-176 -685,-251 -256,-75 -593,-130 -830,-179 -234,-48 -369,-91 -428,-128 -35,8 -73,15 -111,20 -16,24 -32,53 -50,87 -65,122 -154,318 -243,480 -21,37 -41,73 -62,107 11,61 13,106 10,145 -6,104 -41,170 -59,305 -17,135 -17,339 -32,785 -16,447 -46,1135 -97,1825 -51,690 -123,1382 -185,1991 -62,608 -115,1133 -137,1410 -23,278 -17,308 28,357 45,49 127,117 193,176 65,58 113,109 182,175 70,66 162,149 226,234 65,86 103,174 143,222 40,48 81,56 128,84 47,29 99,79 128,135 29,56 34,118 5,178 -29,59 -92,116 -155,150 -63,34 -126,46 -142,79 -16,33 16,86 34,135 19,49 24,94 7,135 -17,42 -56,82 -144,105 -88,24 -225,32 -337,31 -111,-1 -197,-11 -275,-43 -78,-31 -148,-83 -182,-82 -34,1 -33,55 -35,94 -1,15 -3,27 -2,39 147,2 371,2 748,0 596,-2 1573,-9 2087,-13l463 -3c-20,-22 -37,-47 -54,-73 -65,-100 -129,-231 -153,-360 -23,-130 -8,-258 -22,-418 -15,-160 -58,-352 -70,-478 -12,-126 8,-187 24,-323 16,-136 29,-348 36,-532 6,-184 6,-340 37,-476 30,-136 91,-252 129,-377 38,-125 54,-260 65,-364 10,-103 17,-175 19,-244 2,-70 0,-138 5,-155 4,-17 15,15 57,158 43,142 117,395 179,602 62,207 112,368 152,507 40,139 71,257 106,352 35,94 74,166 125,238 51,72 114,144 179,231 66,87 133,189 187,275 53,86 92,156 148,217 44,50 99,94 202,167 15,-9 31,-19 48,-30 79,-49 197,-123 282,-192 85,-68 137,-131 201,-174 63,-43 138,-66 224,-70 86,-5 183,9 262,53 78,43 138,116 219,172 81,55 183,94 261,160 78,67 131,163 183,238 52,74 102,128 150,200 48,72 93,164 102,250 9,87 -20,169 -3,229 16,60 77,100 127,150 21,21 39,44 55,67 22,34 37,69 40,102 1,16 0,32 -2,46 0,1 -1,2 -1,3 22,10 26,19 31,28 13,25 32,48 93,57 62,10 166,7 216,-36 50,-43 46,-126 75,-134 29,-9 91,56 135,96 44,40 70,54 70,23 0,-32 -26,-108 -38,-176l-2 -9 -13 0c-26,-64 -57,-141 -78,-222 -32,-131 -37,-270 -30,-412 6,-141 24,-285 2,-414 -22,-128 -83,-241 -124,-357 -41,-115 -63,-232 -96,-389 -32,-157 -76,-353 -174,-494 -98,-142 -250,-229 -342,-368 -91,-140 -122,-331 -189,-490 -68,-159 -172,-285 -266,-414 -93,-128 -176,-259 -270,-466 -93,-206 -198,-490 -294,-736 -95,-246 -182,-454 -263,-613 -81,-159 -155,-268 -192,-355 -37,-87 -37,-153 -58,-255 -22,-102 -66,-242 -133,-438 -68,-195 -159,-448 -257,-790zm-7242 1974c37,-647 89,-1463 120,-2095 30,-631 39,-1077 57,-1397 17,-320 43,-514 106,-714 64,-199 165,-405 223,-534 58,-129 73,-181 81,-215 3,-14 5,-25 6,-33l-2 0c-13,24 -34,50 -64,79 -38,37 -90,78 -143,116 -52,38 -104,73 -180,135 -76,62 -177,152 -288,228 -111,76 -233,139 -364,179 -132,41 -273,58 -390,77 -116,18 -208,38 -335,79 -128,41 -291,105 -514,152 -223,48 -506,81 -741,129 -235,48 -423,111 -537,159 -114,48 -156,80 -187,183 -32,102 -53,274 -80,454 -26,179 -56,366 -77,488 -21,122 -31,179 -63,266 -32,87 -84,205 -112,362 -28,158 -33,356 -36,477 -3,121 -5,165 -25,206 -20,41 -57,80 -86,169 -29,88 -51,225 -74,312 -23,87 -47,124 -99,186 -52,62 -133,149 -170,247 -37,98 -30,207 -78,424 -48,216 -151,541 -237,869 -86,329 -155,662 -213,893 -58,231 -103,359 -131,467 -27,108 -35,195 40,547 75,353 234,971 321,1339 87,368 102,486 145,558 42,71 112,98 235,142 124,45 301,108 498,180 109,40 224,83 362,125l-67 0c258,85 381,126 596,158 283,43 728,69 1137,101 63,5 125,10 186,16 -126,-89 -193,-152 -260,-224 -76,-80 -153,-170 -206,-276 -54,-105 -83,-226 -81,-321 2,-94 35,-162 137,-234 102,-72 273,-149 431,-210 159,-62 305,-110 443,-142 139,-32 270,-50 395,-46 125,3 244,28 288,30 43,2 10,-18 -41,-39 -51,-22 -120,-45 -172,-62 -52,-17 -87,-28 -101,-45 -14,-18 -8,-42 -4,-58 4,-16 6,-25 19,-86 13,-61 37,-174 61,-332 23,-158 45,-361 76,-680 32,-318 73,-754 105,-1210 31,-456 53,-933 90,-1579z"/> <path class="fil8" d="M12629 7395c71,28 195,102 285,153 91,52 147,80 55,115 -93,35 -334,76 -485,127 -150,51 -209,112 -216,434 -8,323 36,906 105,1674 70,769 166,1722 244,2423 79,701 140,1150 185,1490 46,339 76,570 72,678 -5,107 -46,92 -104,73 -59,-20 -136,-44 -235,-54 -100,-9 -220,-5 -322,-23 -101,-17 -182,-56 -292,-106 -109,-49 -246,-109 -350,-164 -103,-55 -173,-105 -305,-193 -132,-88 -327,-215 -495,-305 -168,-90 -308,-145 -489,-162 -180,-18 -401,2 -576,25 -175,23 -303,49 -355,37 -52,-12 -26,-62 88,-106 114,-44 318,-83 521,-83 203,-1 405,36 570,95 164,58 290,137 416,214 126,77 251,151 213,99 -38,-52 -240,-229 -462,-344 -222,-115 -465,-167 -691,-167 -225,0 -434,52 -591,114 -157,61 -261,132 -331,192 -64,54 -98,99 -142,146 -5,-22 -10,-44 -14,-65 -13,-58 -23,-110 -31,-155 17,-26 36,-51 58,-75 122,-130 320,-219 562,-256 242,-37 527,-23 755,7 228,29 399,74 584,118 184,44 382,87 400,24 18,-64 -144,-235 -261,-415 -117,-180 -189,-370 -216,-485 -27,-115 -10,-157 105,-117 116,41 329,163 449,165 120,2 146,-116 91,-233 -54,-118 -189,-235 -400,-341 -211,-105 -499,-199 -502,-234 -3,-35 278,-11 512,34 234,45 421,110 389,13 -31,-97 -282,-356 -545,-563 -264,-207 -540,-361 -624,-444 -84,-83 25,-94 218,23 193,116 469,360 642,510 173,151 243,207 139,60 -103,-147 -379,-497 -419,-596 -39,-99 159,53 301,191 141,139 226,263 233,214 6,-49 -66,-271 -245,-518 -180,-248 -467,-520 -650,-722 -183,-203 -261,-335 -317,-491 -55,-155 -87,-333 -56,-313 30,19 123,236 264,449 142,213 331,422 494,588 164,165 301,287 299,165 -3,-122 -144,-487 -263,-918 -118,-431 -214,-928 -263,-1263 -49,-335 -51,-510 0,-334 51,175 155,700 263,1148 108,449 219,821 307,1143 88,322 154,594 205,831 51,236 88,436 109,401 20,-35 25,-305 -8,-723 -33,-418 -102,-984 -200,-1453 -98,-469 -224,-841 -221,-973 3,-132 136,-23 249,382 113,405 207,1106 246,1760 39,655 24,1262 10,1756 -14,494 -27,875 -16,1112 10,236 45,327 144,5 99,-322 263,-1058 353,-1728 90,-669 108,-1272 111,-1774 3,-502 -8,-902 -11,-1186 -3,-284 1,-452 48,-562 47,-110 136,-162 231,-209 95,-47 195,-88 208,-141 13,-54 -61,-119 -90,-161 -28,-42 -10,-60 60,-33zm7130 3727c109,-88 256,-185 401,-284 178,-122 355,-246 487,-379 133,-133 222,-275 252,-279 29,-4 -1,129 -100,265 -99,136 -267,275 -290,334 -23,59 99,37 210,-19 111,-55 211,-145 286,-244 74,-99 122,-207 133,-172 11,34 -16,213 -150,348 -134,135 -375,226 -576,340 -200,115 -359,252 -451,411 -93,159 -119,339 -77,680 43,341 154,841 325,1109 171,268 401,303 729,297 328,-5 752,-51 1106,-31 354,21 638,107 614,130 -24,23 -356,-18 -753,9 -398,26 -861,120 -1110,263 -248,142 -280,334 -235,415 46,82 170,54 376,-49 206,-102 493,-278 668,-376 175,-98 239,-118 161,-49 -77,68 -295,225 -437,355 -143,129 -210,231 -106,205 105,-26 381,-180 645,-269 263,-88 513,-109 529,-140 15,-30 -205,-70 -213,-106 -7,-35 197,-68 370,-45 173,23 315,101 330,127 15,26 -96,0 -199,-16 -103,-17 -199,-23 -159,11 40,33 217,107 175,141 -41,34 -300,27 -523,81 -210,50 -388,153 -593,351 -5,0 -11,0 -17,1 -86,4 -161,27 -224,70 -64,43 -116,106 -201,174 -85,69 -203,143 -282,192 -17,11 -33,21 -48,30 -103,-73 -158,-117 -202,-167 -56,-61 -95,-131 -148,-217 -54,-86 -121,-188 -187,-275 -65,-87 -128,-159 -179,-231 -51,-72 -90,-144 -125,-238 -35,-95 -66,-213 -106,-352 -40,-139 -90,-300 -152,-507 -34,-111 -70,-235 -104,-349l-1 -4 -1 -2 -1 -3 -1 -4 -1 -3 0 -2 -2 -4 0 -4 -1 -1 -1 -4 -1 -4 -1 -1 -1 -4 -1 -5 0 0 -1 -4 -2 -5 0 -1 -1 -3 -1 -5 -1 -1 -1 -3 -1 -4 -1 -3 0 -2 -2 -4 0 -3 -1 -1 -1 -5 -1 -3 0 -1 -2 -4 -1 -4 0 0 -1 -4 -1 -5 0 0 -2 -4 -1 -4 0 -1 -1 -3 -1 -4 -1 -2 0 -2 -2 -4 0 -3 -1 -1 -1 -4 -1 -3 0 -1 -1 -4 -1 -4 0 0 -2 -4 -1 -4 0 0 -1 -4 -1 -4 0 -1 -1 -3 -1 -3 -1 -2 0 -2 -2 -4 0 -2 -1 -2 -1 -3 0 -3 -1 -1 -1 -3 -1 -4 0 0 -1 -4 -1 -3 0 0 -1 -4 -1 -3 0 -1 -1 -3 -1 -3 0 -1 -1 -2 -1 -4 -1 -1 0 -2 -1 -3 -1 -3 0 -1 -1 -3 -1 -2 0 -1 -1 -3 -1 -3 -1 -4 -1 -3 0 -1 -1 -4 -1 -1 0 -2 -1 -4 -1 -1 -1 -3 0 -3 -1 0 -1 -4 0 -2 -1 -1 -1 -4 0 0 -1 -3 -1 -3 0 0 -1 -4 0 -2 -1 -1 -1 -3 0 -1 -1 -2 0 -3 0 0 -1 -3 -1 -2 0 -1 -1 -3 -1 -1 0 -2 -1 -3 0 0 -1 -2 0 -3 -1 0 0 -3 -1 -1 0 -1 -1 -3 0 0 -1 -2 0 -3 0 0 -1 -2 -1 -2 0 0 -1 -3 0 -1 0 -1 -1 -2 0 -1 -1 -1 0 -2 0 -1 -1 -2 0 -1 -1 -1 0 -2 0 0 -1 -2 -1 -1 0 -1 0 -1 -1 -2 0 0 0 -2 -1 -1 0 -1 -1 -1 0 0 0 -2 0 -1 -1 -1 0 -1 0 -1 -1 -1 0 -1 0 0 -1 -2 0 -1 0 0 -1 -1 0 -1 0 -1 -1 -1 0 0 0 -1 0 -1 0 0 -1 -2 0 0 0 -1 -1 -1 0 0 0 -1 -1 -1 0 0 0 -1c-6,-14 -9,-15 -10,-8 -5,17 -3,85 -5,155 -2,69 -9,141 -19,244 -11,104 -27,239 -65,364 -38,125 -99,241 -129,377 -31,136 -31,292 -37,476 -7,184 -20,396 -36,532 -16,136 -36,197 -24,323 12,126 55,318 70,478 14,160 -1,288 22,418 24,129 88,260 153,360 17,26 34,51 54,73l-463 3c-514,4 -1491,11 -2087,13 -377,2 -601,2 -748,0 -1,-12 1,-24 2,-39 2,-39 1,-93 35,-94 34,-1 104,51 182,82 78,32 164,42 275,43 112,1 249,-7 337,-31 88,-23 127,-63 144,-105 17,-41 12,-86 -7,-135 -18,-49 -50,-102 -34,-135 16,-33 79,-45 142,-79 63,-34 126,-91 155,-150 29,-60 24,-122 -5,-178 -29,-56 -81,-106 -128,-135 -47,-28 -88,-36 -128,-84 -40,-48 -78,-136 -143,-222 -64,-85 -156,-168 -226,-234l-18 -18c56,-167 89,-317 177,-638 102,-368 276,-960 435,-1519 159,-560 302,-1087 448,-1731 146,-644 294,-1406 357,-1659 64,-252 42,4 -80,636 -122,631 -344,1637 -477,2229 -133,592 -176,771 -239,1156 -64,385 -146,978 -146,1313 0,335 82,413 298,339 216,-74 564,-300 890,-733 327,-433 632,-1074 825,-1596 194,-522 277,-927 403,-1661 127,-734 296,-1796 407,-2338 111,-542 164,-564 181,-505 17,59 0,198 -74,614 -74,415 -205,1108 -302,1862 -34,262 -64,531 -90,795zm-6810 3774c-147,1 -335,17 -515,59 -245,56 -476,158 -607,267 -130,109 -161,224 -152,343 8,119 56,241 -57,307 -113,66 -387,77 -613,32 -225,-46 -401,-148 -442,-254 -40,-106 56,-214 251,-345 195,-131 488,-283 516,-322 27,-39 -213,35 -423,144 -210,110 -390,256 -419,252 -28,-4 96,-159 280,-294 184,-135 428,-250 661,-344 233,-94 455,-165 449,-184 -5,-18 -238,16 -510,126 -272,110 -584,295 -792,454 -207,159 -312,292 -447,359 -135,68 -300,70 -453,-89 -152,-159 -291,-479 -302,-729 -11,-250 106,-431 257,-584 150,-152 333,-276 379,-346 47,-69 -42,-85 -189,-61 -147,24 -352,87 -538,194 -97,56 -189,123 -271,201 79,327 175,710 237,969 87,368 102,486 145,558 42,71 112,98 235,142 124,45 301,108 498,180 109,40 224,83 362,125l-67 0c258,85 381,126 596,158 283,43 728,69 1137,101 63,5 125,10 186,16 -126,-89 -193,-152 -260,-224 -76,-80 -153,-170 -206,-276 -54,-105 -83,-226 -81,-321 2,-94 35,-162 137,-234 102,-72 273,-149 431,-210 159,-62 305,-110 443,-142 49,-11 97,-21 144,-28zm10023 1317c-2,-17 -5,-30 -9,-43 0,-4 0,-8 0,-12 -3,-33 -18,-68 -40,-101 -9,-34 -14,-71 -6,-107 14,-68 73,-134 108,-221 34,-88 45,-198 19,-300 -26,-103 -89,-197 -167,-260 -79,-62 -172,-93 -253,-110 -81,-17 -148,-20 -210,-49 -16,-8 -31,-17 -45,-26 -19,-22 -38,-43 -60,-62 -4,-3 -8,-6 -12,-9 -3,-6 -5,-12 -6,-17 -3,-31 46,-37 168,6 122,42 316,134 459,238 144,105 235,222 290,315 55,94 74,162 89,106 16,-56 29,-237 26,-350 -2,-114 -21,-161 -102,-278 -82,-117 -227,-304 -240,-358 -13,-53 106,28 157,7 51,-20 35,-140 19,-232 -16,-92 -31,-156 -95,-258 -63,-102 -176,-244 -185,-277 -10,-33 82,42 205,216 33,47 68,101 104,161 6,24 11,47 15,70 33,157 55,274 96,389 41,116 102,229 124,357 22,129 4,273 -2,414 -7,142 -2,281 30,412 21,81 52,158 78,222l13 0 2 9c12,68 38,144 38,176 0,31 -26,17 -70,-23 -44,-40 -106,-105 -135,-96 -29,8 -25,91 -75,134 -50,43 -154,46 -216,36 -61,-9 -80,-32 -93,-57 -4,-7 -7,-14 -19,-22zm-5214 -9035c30,20 187,172 307,291 121,118 206,203 146,269 -60,65 -264,111 -339,206 -75,96 -21,242 -57,226 -36,-17 -162,-195 -163,-290 -1,-96 123,-108 222,-129 100,-22 175,-54 179,-116 4,-63 -64,-157 -146,-260 -82,-103 -179,-217 -149,-197z"/> <path class="fil9" d="M23044 15429c-26,-103 -89,-197 -167,-260 -79,-62 -172,-93 -253,-110 -81,-17 -148,-20 -210,-49 -16,-8 -31,-17 -45,-26 47,57 86,122 123,176 52,74 102,128 150,200 48,72 93,164 102,250 9,87 -20,169 -3,229 16,60 77,100 127,150 21,21 39,44 55,67 0,0 0,1 0,1 -9,-34 -14,-71 -6,-107 14,-68 73,-134 108,-221 34,-88 45,-198 19,-300z"/> <path class="fil9" d="M15726 8344c-125,-11 -270,-57 -374,-108 -16,-8 -31,-16 -45,-24 -77,-44 -129,-88 -182,-109 -63,-25 -129,-18 -193,-59 -64,-40 -127,-127 -232,-246 -104,-118 -250,-268 -362,-422 -112,-153 -191,-310 -242,-437 -51,-128 -75,-226 -66,-350 8,-124 50,-274 74,-380 24,-105 30,-166 32,-231 1,-53 -2,-109 -6,-148l-16 -1c-1,8 -3,19 -6,33 -8,34 -23,86 -81,215 -58,129 -159,335 -223,534 -63,200 -89,394 -106,714 -18,320 -27,766 -57,1397 -31,632 -83,1448 -120,2095 -37,646 -59,1123 -90,1579 -32,456 -73,892 -105,1210 -31,319 -53,522 -76,680 -24,158 -48,271 -61,332 -13,61 -15,70 -19,86 -4,16 -10,40 4,58 14,17 49,28 101,45 52,17 121,40 172,62 51,21 84,41 41,39 -44,-2 -163,-27 -288,-30 -81,-2 -165,4 -251,18 -47,7 -95,17 -144,28 -138,32 -284,80 -443,142 -158,61 -329,138 -431,210 -102,72 -135,140 -137,234 -2,95 27,216 81,321 53,106 130,196 206,276 67,72 134,135 260,224 338,29 652,60 955,84 1,1 2,1 4,1 -141,-76 -180,-127 -205,-212 -28,-99 -37,-245 -15,-371 22,-127 74,-233 174,-355 100,-122 248,-259 383,-357 135,-98 257,-157 356,-208 99,-51 175,-95 247,-165 72,-69 140,-165 211,-241 72,-76 149,-133 227,-200 78,-66 159,-142 224,-193 65,-51 116,-78 231,-87 115,-10 296,-4 466,11 170,14 329,35 442,56 113,21 180,40 247,77 25,14 50,30 87,37 -32,-42 -35,-95 -14,-340 22,-277 75,-802 137,-1410 62,-609 134,-1301 185,-1991 51,-690 81,-1378 97,-1825 15,-446 15,-650 32,-785 18,-135 53,-201 59,-305 3,-39 1,-84 -10,-145 -68,113 -137,207 -205,287 -88,103 -175,182 -275,280 -100,98 -213,215 -321,286 -108,71 -210,95 -334,84z"/> <path class="fil1" d="M16666 9317c-81,-105 -245,-282 -369,-430 -123,-148 -206,-268 -265,-356 -60,-87 -96,-143 -138,-190l-6 -6c-51,11 -104,14 -162,9 -125,-11 -270,-57 -374,-108 -16,-8 -31,-16 -45,-24 -69,-39 -118,-79 -166,-101 -66,36 -138,40 -195,32 -67,-9 -113,-36 -218,28 -104,63 -267,215 -415,375 -148,160 -281,328 -375,445 -93,118 -148,185 -137,199 11,15 87,-25 183,-105 96,-81 211,-203 328,-246 116,-44 234,-9 389,84 156,92 350,242 529,249 180,6 345,-131 499,-185 153,-55 295,-26 462,71 167,97 360,263 457,329 97,67 99,34 18,-70z"/> <path class="fil10" d="M16202 15924c-83,-49 -165,-113 -235,-153 -71,-40 -131,-56 -199,-46 -68,10 -144,45 -193,65 -49,20 -71,23 -52,35 18,12 77,33 118,58 42,25 66,54 83,86 16,29 26,59 23,112 5,-4 10,-7 17,-10 26,-9 74,-5 206,-2 48,2 107,3 193,3 -1,-12 1,-24 2,-39 2,-39 1,-93 35,-94l2 -15zm-345 -5372c-101,-381 -243,-668 -317,-866 -74,-197 -80,-305 -80,-413 0,-109 6,-218 41,-351 34,-134 96,-293 167,-378 72,-84 152,-94 185,-111 31,-16 18,-38 -20,-89 -35,3 -70,3 -107,0 -111,-10 -239,-47 -338,-91 -42,16 -76,20 -125,21 -62,0 -148,-7 -230,-19 -81,-13 -159,-31 -215,-42 -57,-11 -93,-14 -141,17 -48,31 -107,96 -117,155 -10,60 30,113 76,162 47,48 99,92 156,200 56,109 117,283 154,412 37,128 50,211 31,303 -20,91 -72,191 -146,378 -74,188 -170,462 -262,823 -91,362 -178,810 -248,1228 -69,418 -122,806 -152,1292 -30,486 -38,1072 -123,1557 -9,55 -20,109 -31,162 88,-47 159,-89 225,-154 72,-69 140,-165 211,-241 72,-76 149,-133 227,-200 78,-66 159,-142 224,-193 65,-51 116,-78 231,-87 115,-10 296,-4 466,11 170,14 329,35 442,56 24,5 47,9 67,14 9,-157 7,-324 5,-497 -7,-536 -20,-1132 -57,-1668 -37,-535 -98,-1010 -199,-1391z"/> <path class="fil3" d="M15133 14027c-115,9 -166,36 -231,87 -65,51 -146,127 -224,193 -78,67 -155,124 -227,200 -71,76 -139,172 -211,241 -66,65 -137,107 -225,154 -7,3 -14,7 -22,11 -99,51 -221,110 -356,208 -135,98 -283,235 -383,357 -100,122 -152,228 -174,355 -22,126 -13,272 15,371 25,85 64,136 205,212 355,28 693,45 901,43 209,-2 288,-24 359,-85 72,-61 138,-161 186,-213 48,-51 80,-55 168,-31 88,24 233,75 359,98 126,23 232,18 305,-4 72,-21 110,-58 132,-88 16,-23 23,-42 37,-55 3,-53 -7,-83 -23,-112 -17,-32 -41,-61 -83,-86 -41,-25 -100,-46 -118,-58 -19,-12 3,-15 52,-35 49,-20 125,-55 193,-65 68,-10 128,6 199,46 70,40 152,104 235,153l-2 15c34,-1 104,51 182,82 78,32 164,42 275,43 112,1 249,-7 337,-31 88,-23 127,-63 144,-105 17,-41 12,-86 -7,-135 -18,-49 -50,-102 -34,-135 16,-33 79,-45 142,-79 63,-34 126,-91 155,-150 29,-60 24,-122 -5,-178 -29,-56 -81,-106 -128,-135 -47,-28 -88,-36 -128,-84 -40,-48 -78,-136 -143,-222 -64,-85 -156,-168 -226,-234 -6,-6 -12,-12 -18,-18 -60,-58 -105,-104 -164,-157 -66,-59 -148,-127 -193,-176 -5,-5 -10,-11 -14,-17 -37,-7 -62,-23 -87,-37 -52,-29 -105,-47 -180,-63 -20,-5 -43,-9 -67,-14 -113,-21 -272,-42 -442,-56 -170,-15 -351,-21 -466,-11z"/> <path class="fil4" d="M14769 16056c-69,-30 -169,-69 -219,-61 -49,9 -48,66 -69,135 -21,69 -65,151 -183,196 -117,45 -309,54 -500,47 -192,-7 -383,-28 -500,-59 -118,-31 -160,-70 -203,-110 25,85 64,136 205,212 355,28 693,45 901,43 209,-2 288,-24 359,-85 72,-61 138,-161 186,-213 48,-51 80,-55 168,-31 31,9 68,20 109,33 -12,-5 -23,-9 -34,-13 -113,-41 -151,-63 -220,-94zm673 -531c-121,-28 -267,-25 -376,-54 -108,-30 -179,-92 -258,-128 -80,-37 -168,-48 -154,-5 15,42 131,138 235,211 104,73 195,123 304,168 108,44 233,83 375,176 61,39 125,89 177,139 -3,-26 -11,-45 -21,-63 -17,-32 -41,-61 -83,-86 -41,-25 -100,-46 -118,-58 -19,-12 3,-15 52,-35 49,-20 125,-55 193,-65 31,-5 60,-4 90,2 -23,-13 -46,-26 -68,-39 -130,-77 -227,-136 -348,-163zm1056 -9c-161,-144 -377,-315 -584,-440 -207,-126 -404,-205 -604,-241 -201,-35 -404,-26 -467,-8 -62,19 16,47 112,61 96,13 209,12 321,25 112,12 223,38 328,91 104,53 202,132 305,199 104,66 213,120 350,207 137,87 303,208 400,292 97,85 127,134 132,179 5,45 -15,85 -53,114 -38,30 -95,48 -180,40 -84,-9 -197,-45 -335,-110 -30,-14 -61,-30 -93,-46 24,16 48,31 72,45l-2 15c34,-1 104,51 182,82 78,32 164,42 275,43 112,1 249,-7 337,-31 11,-3 22,-6 32,-10 -18,-8 -36,-21 -52,-33 -38,-30 -71,-62 -140,-137 -69,-75 -175,-193 -336,-337zm516 -199c-48,13 -102,13 -160,-13 -57,-27 -118,-80 -207,-171 -89,-91 -205,-220 -370,-337 -164,-117 -376,-222 -588,-294 -212,-71 -423,-108 -481,-108 -58,-1 36,35 191,85 155,50 369,114 503,163 134,48 187,81 292,170 105,88 262,233 362,324 100,91 144,128 218,208 75,81 180,205 262,310 36,47 68,91 92,131 -19,-47 -46,-96 -31,-127 16,-33 79,-45 142,-79 63,-34 126,-91 155,-150 29,-60 24,-122 -5,-178 -29,-56 -81,-106 -128,-135 -32,-19 -61,-29 -89,-48 -11,14 -17,32 -21,50 -9,41 -9,86 -29,122 -21,36 -61,63 -108,77z"/> <path class="fil4" d="M21168 14988c-2,35 -34,166 -72,280 -39,113 -85,210 -90,309 -4,99 31,201 70,271 39,70 80,109 125,123 45,13 94,1 153,-72 58,-74 125,-209 169,-304 45,-95 65,-151 116,-251 52,-100 133,-245 159,-259 25,-15 -5,100 -66,237 -61,137 -152,294 -235,414 -82,119 -155,199 -222,262 -68,63 -130,107 -184,170 -55,63 -101,145 -146,210 -12,19 -24,36 -37,52 -1,-22 -4,-38 -23,-33 -24,5 -73,41 -126,45 -54,4 -111,-25 -157,-84 -19,-25 -36,-55 -52,-86 27,-20 81,31 136,39 60,8 121,-36 180,-105 59,-68 117,-162 136,-252 19,-89 0,-175 -32,-242 -32,-67 -75,-115 -78,-167 -3,-52 36,-107 79,-187 44,-79 93,-182 131,-264 39,-82 67,-142 66,-106zm1404 1015c29,-12 -8,67 -85,165 -76,98 -191,215 -276,306 -84,92 -137,158 -160,206 -22,48 -13,77 21,96 31,17 82,26 161,34 -39,11 -74,19 -102,23 -67,11 -96,6 -117,-13 -22,-19 -37,-52 -47,-78 -9,-26 -12,-46 -55,-20 -43,25 -126,96 -214,137 -88,42 -182,54 -243,53 -62,-1 -91,-16 -111,-40 -19,-25 -29,-59 -58,-70 -29,-10 -77,4 -124,-2 -15,-2 -31,-6 -46,-12 31,-33 89,-36 148,-71 69,-41 140,-126 256,-277 115,-150 275,-365 395,-530 119,-164 199,-277 252,-328 53,-51 79,-39 -4,87 -83,125 -274,363 -421,560 -147,197 -250,353 -300,451 -50,99 -48,140 -6,160 42,19 124,17 218,-15 93,-32 199,-94 318,-199 119,-105 252,-253 365,-379 113,-127 207,-231 235,-244z"/> <path class="fil11" d="M15934 16242l-4 -37c-1,-9 2,-16 7,-23 6,-6 13,-10 21,-10l913 -42 102 -44c4,-1 7,-2 11,-2l2245 -56c8,0 15,2 21,8 6,6 9,13 9,21l6 232c0,16 -12,29 -28,30l-251 16 -198 383c-5,10 -14,16 -25,16l-1940 78c-4,1 -7,0 -10,-1l-1068 -339c-11,-4 -19,-13 -20,-24l-23 -140c-2,-8 0,-16 5,-23 5,-6 11,-10 20,-11l207 -32z"/> <path class="fil12" d="M15932 16220l593 152 346 -242 -913 42c-8,0 -15,4 -21,10 -5,7 -8,14 -7,23l2 15z"/> <path class="fil13" d="M15716 16394l786 218 440 -212 2044 -65 -198 383c-5,10 -14,16 -25,16l-1940 78c-4,1 -7,0 -10,-1l-1068 -339c-11,-4 -19,-13 -20,-24l-9 -54z"/> <path class="fil12" d="M16942 16400l-98 346 -21 66 1940 -78c11,0 20,-6 25,-16l198 -383 -2044 65z"/> <path class="fil11" d="M13792 16492c33,-2 60,20 63,47l43 432c4,32 -32,50 -69,52 -39,2 -80,-13 -81,-46l-13 -432c-1,-28 23,-52 57,-53z"/> <path class="fil14" d="M13745 16885c7,-8 14,-14 21,-18 19,-13 36,-16 52,-17 16,-1 31,1 55,9 4,1 9,3 15,5l10 107c4,32 -32,50 -69,52 -39,2 -80,-13 -81,-46l-3 -92z"/> <path class="fil15" d="M1581 11539l6596 183c162,29 282,102 313,262l1045 4232 3018 209 -196 300 -1973 287 -130 105 -483 -13 -418 183 -5970 -405 -496 -301c-114,-72 -257,-129 -327,-248l-1254 -4598c-6,-146 130,-196 275,-196z"/> <polygon class="fil14" points="2887,16581 9480,16973 9728,16869 9783,17104 9771,17104 9353,17287 3383,16882 "/> <polygon class="fil16" points="9535,16216 9728,16869 9783,17104 10254,17117 10384,17012 12357,16725 12553,16425 "/> <path class="fil14" d="M9895 16679c0,0 1469,-157 1358,-176 -86,-15 -1191,-98 -1672,-134l90 306 224 4z"/> <path class="fil17" d="M10136 16785c12,0 162,-11 162,-11l-11 163 -144 88 -7 -240zm1543 -171l299 -30 5 89 -313 42 9 -101zm-138 13c0,14 -10,139 -10,139l-118 19 0 -158 128 0zm-273 32l-3 138c0,0 -129,39 -129,24 0,-15 -5,-157 -5,-157l137 -5z"/> <path class="fil18" d="M8522 12112c-2419,871 -4484,2182 -5947,4244 -5,-7 -10,-15 -15,-23l-1254 -4598c-6,-146 130,-196 275,-196l6596 183c162,29 282,102 313,262l32 128z"/> </g> </g> </svg>