<?xml version="1.0" encoding="UTF-8"?>
<svg width="144.5mm" height="144.5mm" version="1.1" viewBox="0 0 511.99998 511.99998" xmlns="http://www.w3.org/2000/svg">
 <g transform="translate(-132.39 -111.21)">
  <rect x="132.39" y="111.21" width="512" height="512" fill="#212121"/>
  <path d="m388 377.36a205 205 0 0 0 -205 205 205 205 0 0 0 1.7598 24.762h406.57a205 205 0 0 0 1.6719 -24.762 205 205 0 0 0 -205 -205z" fill="#fff"/>
  <path d="m235.97 347.22 152.03 131.52 152.03-131.52c-20.027-29.456-284.03-29.456-304.05 0z" fill="#212121"/>
  <path d="m235.97 326.22 152.03 131.52 152.03-131.52c-20.027-29.456-284.03-29.456-304.05 0z" fill="#ffbc21"/>
  <path transform="translate(132.39 111.21)" d="m134.79 226.5l120.82 104.53 120.82-104.53h-241.64z" fill="#ff5021"/>
  <path d="m235.97 326.22 151.53 78.021 152.53-78.021c-20.027-29.456-284.03-29.456-304.05 0z" fill="#ff9d10"/>
  <g transform="translate(6.3032)">
   <circle cx="457.75" cy="225.08" r="53.134" fill="#fff"/>
   <path d="m457.75 200.94a29.634 29.634 0 0 0 -29.635 29.635 29.634 29.634 0 0 0 5.8828 17.666 55.009 55.009 0 0 0 23.752 5.4688 55.009 55.009 0 0 0 23.721 -5.4336 29.634 29.634 0 0 0 5.9121 -17.701 29.634 29.634 0 0 0 -29.633 -29.635z"/>
   <g transform="translate(-151.32)">
    <circle cx="457.75" cy="225.08" r="53.134" fill="#fff"/>
    <path d="m457.75 200.94a29.634 29.634 0 0 0 -29.635 29.635 29.634 29.634 0 0 0 5.8828 17.666 55.009 55.009 0 0 0 23.752 5.4688 55.009 55.009 0 0 0 23.721 -5.4336 29.634 29.634 0 0 0 5.9121 -17.701 29.634 29.634 0 0 0 -29.633 -29.635z"/>
   </g>
  </g>
 </g>
</svg>
